<?xml version="1.0" standalone="no"?>
<!DOCTYPE svg PUBLIC "-//W3C//DTD SVG 20010904//EN"
 "http://www.w3.org/TR/2001/REC-SVG-20010904/DTD/svg10.dtd">
<svg version="1.0" xmlns="http://www.w3.org/2000/svg"
 width="512.000000pt" height="512.000000pt" viewBox="0 0 512.000000 512.000000"
 preserveAspectRatio="xMidYMid meet">
<metadata>
Created by potrace 1.14, written by Peter Selinger 2001-2017
</metadata>
<g transform="translate(0.000000,512.000000) scale(0.100000,-0.100000)"
fill="#000000" stroke="none">
<path d="M876 4937 c-8 -7 -22 -46 -30 -87 -67 -333 -41 -802 70 -1227 31
-118 36 -156 38 -263 2 -111 5 -131 28 -181 14 -31 31 -60 37 -63 6 -4 11 -25
11 -47 0 -35 -2 -38 -18 -28 -10 7 -36 36 -58 65 -21 30 -42 54 -45 54 -15 0
-20 -107 -9 -170 6 -36 24 -89 40 -118 l28 -53 -23 -57 c-12 -31 -31 -83 -41
-116 -16 -50 -26 -64 -69 -96 -134 -101 -223 -233 -260 -387 -25 -103 -16
-242 24 -398 55 -212 105 -281 205 -278 28 1 59 4 69 5 15 2 25 -14 51 -87
229 -632 794 -1103 1466 -1221 138 -25 423 -29 565 -10 430 60 804 246 1102
548 430 435 626 1052 523 1651 -22 133 -78 320 -125 426 -42 93 -54 139 -115
451 -56 279 -98 439 -165 625 -49 136 -155 358 -220 460 -127 199 -289 370
-455 479 -84 56 -241 134 -257 129 -24 -9 -87 -201 -132 -403 -9 -43 -10 -42
-4 15 21 217 -1 298 -96 347 -162 85 -402 -20 -548 -240 -32 -48 -69 -110 -82
-138 l-23 -52 -36 15 c-25 10 -52 13 -87 9 -83 -11 -202 -47 -220 -66 -16 -18
-20 -16 -85 38 -37 31 -94 73 -126 92 -114 68 -284 105 -383 82 l-45 -11 -63
60 c-129 120 -249 198 -369 240 -41 13 -56 15 -68 6z m134 -93 c76 -36 173
-105 265 -188 l50 -45 -25 -18 c-14 -9 -37 -31 -52 -47 l-27 -29 -40 35 c-40
34 -78 50 -152 63 -36 7 -36 6 -48 -37 -7 -23 -15 -111 -18 -194 -6 -174 9
-318 63 -594 18 -97 38 -216 43 -265 5 -50 19 -112 30 -138 16 -38 19 -53 10
-69 -11 -20 -11 -20 -25 1 -28 39 -63 126 -97 241 -88 292 -135 651 -124 950
6 146 28 338 43 361 9 15 27 10 104 -27z m1973 11 c68 -32 72 -45 72 -260 l0
-190 63 -132 c78 -162 85 -198 48 -254 -62 -93 -223 -121 -386 -67 -85 27
-192 96 -287 183 -53 47 -63 62 -63 89 0 18 -9 67 -20 109 l-20 77 34 73 c82
171 177 283 297 346 100 54 186 62 262 26z m384 -21 c228 -124 440 -342 589
-605 156 -276 251 -560 344 -1034 54 -274 64 -316 104 -405 77 -171 132 -399
145 -605 36 -536 -155 -1048 -533 -1428 -608 -610 -1542 -719 -2283 -266 -224
137 -455 368 -592 592 -57 93 -134 248 -164 332 -14 39 -28 77 -32 86 -8 22
62 40 161 40 77 1 181 -25 444 -107 l115 -36 0 -172 c0 -186 16 -269 71 -378
83 -164 251 -239 411 -184 186 63 376 345 465 691 17 66 28 88 63 126 42 45
75 97 75 119 0 5 -10 10 -23 10 -16 0 -28 -11 -42 -36 -26 -49 -92 -105 -168
-142 -213 -105 -516 -95 -895 30 l-93 30 19 22 c89 96 142 448 97 641 -32 138
-126 294 -224 372 l-47 38 150 0 c133 1 163 4 256 29 119 32 258 45 343 33 61
-9 87 -5 87 13 0 38 -194 53 -335 26 -38 -8 -71 -13 -73 -11 -1 1 3 24 9 51
20 82 14 286 -10 377 -39 147 -118 263 -238 350 -24 17 -43 33 -43 37 0 22
283 204 405 260 305 139 691 206 895 156 36 -9 104 -16 152 -16 l86 0 6 -57
c23 -238 22 -247 -42 -315 -24 -26 -26 -27 -56 -11 -43 22 -131 22 -190 -1
-53 -20 -170 -114 -218 -173 -85 -107 -130 -252 -131 -428 -1 -129 10 -198 49
-297 22 -56 23 -64 9 -74 -8 -6 -15 -14 -15 -18 0 -3 55 -6 123 -6 150 0 226
-16 364 -74 59 -25 109 -43 112 -40 3 3 1 13 -5 22 -9 13 -3 28 27 72 45 66
73 130 99 221 15 54 26 75 59 104 49 44 87 119 102 200 11 58 5 165 -10 165
-3 0 -24 -24 -45 -54 -22 -29 -48 -58 -58 -65 -16 -10 -18 -8 -18 25 0 21 8
47 20 61 30 38 60 147 60 218 0 71 -9 125 -20 125 -5 0 -22 -24 -39 -52 -17
-29 -44 -68 -60 -87 -27 -31 -30 -32 -39 -14 -8 15 -5 36 14 87 27 74 33 206
13 265 -13 35 -17 37 -34 15 -9 -14 -13 6 -18 102 -5 81 -3 120 4 123 21 7 79
63 100 97 34 56 24 131 -34 248 -26 52 -47 106 -47 120 0 96 107 506 132 506
6 0 49 -21 95 -46z m-1686 -276 c66 -25 180 -98 256 -166 41 -36 43 -40 53
-122 7 -47 20 -110 30 -140 l19 -55 -29 -60 c-79 -163 -177 -273 -298 -332
-69 -34 -84 -38 -157 -38 -68 0 -85 4 -113 23 -55 40 -57 50 -57 262 l0 195
-62 130 c-74 153 -80 196 -37 253 15 19 50 45 78 59 46 22 60 24 151 20 73 -3
118 -11 166 -29z m637 -130 c20 -26 55 -165 56 -226 1 -59 -1 -65 -29 -88 -40
-32 -85 -44 -167 -44 -59 0 -69 3 -82 23 -24 37 -46 127 -52 213 l-7 81 44 17
c89 33 218 46 237 24z m-1132 -73 c24 -10 40 -32 74 -96 76 -150 82 -176 73
-319 -4 -69 -6 -145 -4 -170 7 -99 67 -160 179 -182 l62 -13 -53 -40 c-50 -39
-54 -40 -99 -31 -37 7 -62 5 -109 -8 -50 -14 -64 -14 -77 -4 -20 17 -95 134
-111 176 -16 39 -28 41 -42 6 -5 -15 -11 -25 -13 -23 -2 2 -12 56 -22 119 -26
164 -26 472 -1 554 l18 58 47 -7 c26 -4 61 -13 78 -20z m813 -538 c-23 -9 -44
-16 -46 -13 -3 2 6 20 19 39 l23 36 23 -22 23 -22 -42 -18z m-425 -492 c111
-47 184 -188 201 -392 7 -76 -4 -191 -25 -264 -12 -41 -21 -46 -122 -55 l-67
-7 17 58 c17 56 26 67 65 79 13 4 17 16 17 51 0 46 0 46 -22 31 -31 -22 -106
-20 -145 4 -19 11 -43 41 -59 72 -34 68 -50 85 -85 93 -16 4 -35 16 -43 27
-18 25 -23 16 -35 -63 -17 -102 -14 -156 7 -162 12 -2 22 -17 26 -38 3 -18 11
-50 17 -71 l10 -39 28 30 c35 37 72 47 112 31 30 -13 59 -55 59 -86 0 -15 -10
-16 -102 -10 -57 3 -147 11 -202 18 -118 15 -119 16 -118 153 0 229 110 457
254 529 61 31 154 35 212 11z m1309 -10 c63 -29 113 -80 162 -160 76 -127 116
-333 90 -460 -25 -117 -116 -273 -146 -248 -8 6 -43 23 -79 37 -36 15 -72 30
-80 35 -9 5 -30 12 -48 16 -70 15 -83 127 -19 165 18 11 41 20 52 20 28 0 85
-37 85 -55 0 -8 4 -15 9 -15 5 0 18 32 28 72 12 49 23 73 36 76 9 2 17 13 17
23 0 18 -1 18 -32 -1 -19 -12 -51 -20 -75 -20 -55 0 -106 43 -139 119 -14 31
-36 67 -49 81 -12 14 -32 40 -43 58 -11 19 -22 29 -26 24 -19 -31 -36 -139
-36 -229 0 -90 2 -104 18 -109 38 -12 47 -23 63 -77 9 -31 26 -72 37 -91 l20
-33 -87 -6 c-96 -6 -91 -9 -122 73 -67 176 -61 397 17 571 47 104 126 158 232
159 47 0 77 -6 115 -25z m-1855 -544 c11 -6 41 -97 42 -123 0 -5 -8 -8 -19 -8
-10 0 -37 -7 -60 -15 -22 -8 -41 -11 -41 -7 0 13 55 162 60 162 3 0 11 -4 18
-9z m166 -186 c77 -13 148 -56 231 -139 91 -93 134 -169 167 -299 18 -70 20
-100 15 -207 -10 -190 -49 -343 -101 -395 -33 -33 -54 -32 -197 10 -153 44
-241 47 -377 10 -154 -41 -186 -34 -232 55 -42 83 -90 296 -90 404 0 261 207
527 440 565 54 9 68 8 144 -4z m736 -1251 c161 -30 426 -20 532 21 21 8 17 -9
-32 -132 -70 -176 -161 -292 -267 -340 -136 -63 -278 -18 -329 102 -25 60 -32
129 -23 222 7 68 6 90 -6 113 -20 39 -19 43 8 37 12 -3 65 -14 117 -23z"/>
<path d="M3337 4623 c-36 -71 -49 -155 -77 -513 -11 -140 -25 -298 -30 -350
-11 -106 -6 -147 21 -202 39 -77 41 -70 64 212 28 356 36 434 50 496 19 81 44
144 59 144 25 0 178 -135 250 -220 93 -111 146 -189 208 -305 26 -49 48 -87
48 -83 0 14 -62 182 -94 251 -93 205 -290 457 -439 565 l-46 33 -14 -28z"/>
<path d="M807 2262 c-44 -49 -63 -191 -36 -273 38 -113 117 -101 147 23 38
152 -41 328 -111 250z"/>
<path d="M1258 2270 c-52 -31 -71 -213 -31 -302 55 -121 147 -36 146 132 -2
126 -55 205 -115 170z"/>
</g>
</svg>
